<svg xmlns="http://www.w3.org/2000/svg" version="1.1" xmlns:xlink="http://www.w3.org/1999/xlink" xmlns:svgjs="http://svgjs.dev/svgjs" width="1440" height="560" preserveAspectRatio="none" viewBox="0 0 1440 560"><g mask="url(&quot;#SvgjsMask1000&quot;)" fill="none"><rect width="1440" height="560" x="0" y="0" fill="#0e2a47"></rect><path d="M0 365.67L10 398.15L20 373.08L30 357.93L40 311.19L50 279.57L60 345.23L70 307.93L80 301.14L90 339.52L100 300.69L110 334.4L120 285.98L130 317.01L140 327.56L150 375.66L160 377.8L170 313.19L180 253.7L190 280.87L200 256.42L210 302.51L220 329.78L230 300.82L240 304.71L250 252.02L260 302.78L270 317.28L280 318.28L290 356.54L300 289.65L310 347.49L320 384.9L330 327.55L340 305.46L350 253.44L360 258.11L370 315.37L380 344.49L390 283.93L400 262.83L410 276.63L420 316.94L430 275.79L440 259.17L450 232.33L460 205.88L470 167.35L480 139.35L490 147.49L500 122.75L510 180.64L520 172.31L530 105.23L540 116.24L550 140.78L560 93.95L570 26.32L580 47.31L590 17.96L600 79.17L610 72.34L620 8.36L630 18.96L640 64.56L650 31.31L660 45.01L670 81.29L680 131.75L690 201.72L700 182.34L710 237.51L720 292.03L730 267.73L740 252.49L750 231.24L760 213.89L770 250.07L780 261.11L790 215.39L800 277.6L810 267.92L820 282.03L830 251.77L840 193.3L850 247.1L860 186.06L870 185.53L880 247.86L890 257.59L900 225.28L910 224.29L920 199.79L930 222.11L940 186.08L950 208.88L960 216.88L970 171.66L980 209.11L990 176.03L1000 131.73L1010 73.7L1020 127.93L1030 65.58L1040 8.02L1050 53.19L1060 10.63L1070 44.85L1080 42.66L1090 38.54L1100 100.94L1110 121.04L1120 96.21L1130 95.07L1140 150.52L1150 150.46L1160 216.46L1170 180.47L1180 166.15L1190 150.75L1200 134.07L1210 163.77L1220 129.4L1230 142.69L1240 212.54L1250 151.59L1260 147.61L1270 79.84L1280 137.37L1290 83.51L1300 71.26L1310 130.47L1320 180.87L1330 119.33L1340 97.78L1350 38.03L1360 84L1370 55.93L1380 89.91L1390 36.17L1400 38.01L1410 97.78L1420 125.24L1430 86.86L1440 112.66" stroke="#224b75" stroke-width="2"></path><path d="M0 365.67L10 398.15L20 373.08L30 357.93L40 311.19L50 279.57L60 345.23L70 307.93L80 301.14L90 339.52L100 300.69L110 334.4L120 285.98L130 317.01L140 327.56L150 375.66L160 377.8L170 313.19L180 253.7L190 280.87L200 256.42L210 302.51L220 329.78L230 300.82L240 304.71L250 252.02L260 302.78L270 317.28L280 318.28L290 356.54L300 289.65L310 347.49L320 384.9L330 327.55L340 305.46L350 253.44L360 258.11L370 315.37L380 344.49L390 283.93L400 262.83L410 276.63L420 316.94L430 275.79L440 259.17L450 232.33L460 205.88L470 167.35L480 139.35L490 147.49L500 122.75L510 180.64L520 172.31L530 105.23L540 116.24L550 140.78L560 93.95L570 26.32L580 47.31L590 17.96L600 79.17L610 72.34L620 8.36L630 18.96L640 64.56L650 31.31L660 45.01L670 81.29L680 131.75L690 201.72L700 182.34L710 237.51L720 292.03L730 267.73L740 252.49L750 231.24L760 213.89L770 250.07L780 261.11L790 215.39L800 277.6L810 267.92L820 282.03L830 251.77L840 193.3L850 247.1L860 186.06L870 185.53L880 247.86L890 257.59L900 225.28L910 224.29L920 199.79L930 222.11L940 186.08L950 208.88L960 216.88L970 171.66L980 209.11L990 176.03L1000 131.73L1010 73.7L1020 127.93L1030 65.58L1040 8.02L1050 53.19L1060 10.63L1070 44.85L1080 42.66L1090 38.54L1100 100.94L1110 121.04L1120 96.21L1130 95.07L1140 150.52L1150 150.46L1160 216.46L1170 180.47L1180 166.15L1190 150.75L1200 134.07L1210 163.77L1220 129.4L1230 142.69L1240 212.54L1250 151.59L1260 147.61L1270 79.84L1280 137.37L1290 83.51L1300 71.26L1310 130.47L1320 180.87L1330 119.33L1340 97.78L1350 38.03L1360 84L1370 55.93L1380 89.91L1390 36.17L1400 38.01L1410 97.78L1420 125.24L1430 86.86L1440 112.66L1440 560L0 560z" fill="url(&quot;#SvgjsLinearGradient1001&quot;)"></path></g><defs><mask id="SvgjsMask1000"><rect width="1440" height="560" fill="#ffffff"></rect></mask><linearGradient x1="50%" y1="0%" x2="50%" y2="100%" id="SvgjsLinearGradient1001"><stop stop-opacity="0.65" stop-color="#224b75" offset="0"></stop><stop stop-opacity="0" stop-color="#508dcc" offset="0.8"></stop></linearGradient></defs></svg>